<svg xmlns="http://www.w3.org/2000/svg" xmlns:xlink="http://www.w3.org/1999/xlink" id="Layer_1" x="0px" y="0px" viewBox="0 0 64 64" style="enable-background:new 0 0 64 64;" xml:space="preserve"><style type="text/css">	.st0{fill:#1F8BED;}	.st1{opacity:0.31;fill:#1F8BED;}</style><g>	<path class="st0" d="M61.22,57.45c0-0.71-0.32-1.12-0.85-1.12c-0.54,0-0.85,0.4-0.85,1.12v2.01h-6.83v-6.55   c0-0.92-0.25-1.16-1.2-1.16c-1.96-0.01-3.92-0.01-5.88,0c-0.88,0-1.15,0.27-1.15,1.16v6.55h-6.75V28.64h21.81V53   c0,0.72,0.3,1.12,0.83,1.13c0.55,0.02,0.88-0.4,0.88-1.09V21.8c0-0.81-0.3-1.09-1.11-1.09c-2.02-0.01-4.04-0.01-6.05,0   c-0.74,0-0.95,0.15-1.17,0.88c-0.5,1.57-1.01,3.15-1.48,4.73c-0.14,0.44-0.33,0.58-0.79,0.58c-4.43-0.02-8.87-0.01-13.3-0.01   c-1.2,0-1.38,0.19-1.38,1.4v9.2c-4,0.76-7.92,1.52-11.84,2.27c-0.03-0.11-0.05-0.15-0.05-0.18c0.17-2.68,0.35-5.36,0.52-8.04   c0.02-0.38,0.21-0.41,0.5-0.41h5.03c0.93,0,0.92,0,0.97,0.96c0.06,0.97,0.1,1.94,0.24,2.9c0.03,0.27,0.35,0.6,0.62,0.71   c0.21,0.08,0.64-0.06,0.79-0.24c0.18-0.22,0.24-0.59,0.23-0.89c-0.19-3.17-0.41-6.35-0.62-9.52c-0.14-1.91-0.26-3.83-0.41-5.74   c-0.05-0.66-0.31-0.95-0.91-0.95c-2.13-0.01-4.26-0.01-6.39,0c-0.57,0-0.85,0.31-0.91,0.89c-0.05,0.42-0.06,0.83-0.08,1.25   c-0.33,4.91-0.66,9.84-0.99,14.75c-0.11,1.61-0.23,3.21-0.34,4.86c-1.57,0.31-3.1,0.59-4.66,0.9c-0.03-0.28-0.08-0.49-0.09-0.7   c-0.21-3.08-0.41-6.14-0.62-9.22c-0.18-2.76-0.36-5.51-0.56-8.26c-0.05-0.57-0.34-0.85-0.91-0.88c-0.44-0.01-0.88-0.01-1.31,0.01   c-0.5,0.02-0.85,0.38-0.84,0.82c0.01,0.49,0.28,0.78,0.75,0.87c0.21,0.03,0.41,0.03,0.66,0.05c0.1,1.57,0.21,3.12,0.31,4.7H9.49   c0.1-1.6,0.21-3.12,0.31-4.67c0.14-0.03,0.25-0.05,0.35-0.08c0.47-0.13,0.74-0.43,0.7-0.91c-0.06-0.5-0.38-0.76-0.9-0.78h-0.8   c-0.67,0.02-0.97,0.3-1.01,0.97c-0.06,0.8-0.1,1.58-0.16,2.38C7.69,29.6,7.39,33.9,7.1,38.21c-0.17,2.5-0.34,4.98-0.49,7.47   c-0.02,0.47-0.18,0.66-0.65,0.72c-0.73,0.09-1.47,0.21-2.18,0.4c-0.38,0.1-0.68,0.41-1.03,0.62v13.82h57.89   c0.46-0.3,0.6-0.72,0.58-1.25C61.2,59.13,61.22,58.3,61.22,57.45z M54.42,22.44h5.06v4.41h-6.45   C53.5,25.37,53.95,23.91,54.42,22.44z M25.35,20.09h4.91c0.09,1.4,0.18,2.8,0.28,4.23h-5.47C25.17,22.89,25.26,21.51,25.35,20.09z    M24.95,26.1h5.72c0.07,1.08,0.14,2.15,0.22,3.27h-6.16C24.82,28.26,24.89,27.2,24.95,26.1z M9.36,30.13c1.88,0,3.68,0,5.48,0.02   c0.1,0,0.3,0.17,0.31,0.28c0.09,1.07,0.15,2.14,0.22,3.26H9.13C9.2,32.51,9.28,31.36,9.36,30.13z M9,35.48h6.51   c0.13,1.96,0.25,3.88,0.39,5.84c-1.21,0.24-2.39,0.47-3.58,0.71c-0.72,0.15-0.9,0.35-0.91,1.07c0,0.63,0.02,1.25-0.01,1.88   c-0.01,0.16-0.15,0.43-0.27,0.46c-0.9,0.19-1.81,0.34-2.82,0.52C8.54,42.42,8.77,38.96,9,35.48z M35.9,59.48H4.48v-7.42   c0-1.05,0.01-2.1-0.01-3.15c-0.01-0.39,0.07-0.55,0.5-0.62c2.42-0.42,4.82-0.88,7.24-1.32c0.7-0.14,0.89-0.38,0.9-1.09   c0.01-0.63,0.01-1.25,0-1.88c-0.01-0.3,0.08-0.42,0.4-0.49c6.78-1.28,13.55-2.58,20.32-3.88c0.67-0.14,1.35-0.26,2.06-0.4V59.48z    M50.93,59.49h-4.71v-6h4.71V59.49z"></path>	<path class="st1" d="M59.48,22.44v4.41h-6.45c0.47-1.48,0.92-2.94,1.39-4.41H59.48z"></path>	<rect x="46.22" y="53.5" class="st1" width="4.71" height="6"></rect>	<path class="st0" d="M35.32,2.77c-1.57,0.02-3.16,0-4.73,0c-1.53,0.01-2.64,0.7-3.35,2.06C27.15,5,26.93,5.15,26.74,5.16   c-0.55,0.05-1.09,0-1.64,0.03c-1.09,0.06-1.99,0.47-2.6,1.4c-1.3,1.99-0.34,5.25,2.46,5.44c0.3,0.02,0.4,0.13,0.39,0.42   c-0.01,0.43-0.01,0.87,0,1.31c0.05,1.37,1.04,2.3,2.45,2.31c1.42,0,2.44-0.96,2.47-2.35c0.01-0.52,0-1.06,0-1.64   c1.6-0.1,2.69-0.82,3.33-2.22c0.05-0.11,0.3-0.19,0.46-0.19c0.62-0.03,1.22,0,1.82-0.05c1.21-0.08,2.07-0.7,2.6-1.77   C39.45,5.84,38.5,2.72,35.32,2.77z M35.53,7.94c-0.4,0.01-0.8,0-1.2,0v0.01c-0.43,0-0.88-0.01-1.31,0   c-0.52,0.02-0.83,0.27-0.93,0.82c-0.19,1.01-0.68,1.45-1.73,1.57c-1.21,0.15-1.78,0.79-1.79,2.01c0,0.43,0.01,0.87,0,1.31   c-0.01,0.48-0.27,0.75-0.75,0.75c-0.47,0-0.74-0.25-0.74-0.74c-0.01-0.5,0-0.99-0.01-1.48c-0.02-1.04-0.63-1.7-1.66-1.84   c-0.22-0.03-0.46-0.05-0.66-0.11c-0.78-0.26-1.29-1.09-1.19-1.88c0.1-0.79,0.79-1.41,1.66-1.46c0.79-0.03,1.6-0.01,2.39-0.01   c0.71-0.01,0.93-0.19,1.08-0.9c0.18-0.9,0.82-1.48,1.74-1.49c1.7-0.02,3.39-0.02,5.08,0c0.99,0.02,1.65,0.73,1.66,1.72   C37.2,7.23,36.56,7.9,35.53,7.94z"></path>	<path class="st1" d="M37.19,6.22c0.01,1.01-0.63,1.69-1.65,1.72c-0.4,0.01-0.8,0-1.2,0v0.01c-0.43,0-0.88-0.01-1.31,0   c-0.52,0.02-0.83,0.27-0.93,0.82c-0.19,1.01-0.68,1.45-1.73,1.57c-1.21,0.15-1.78,0.79-1.79,2.01c0,0.43,0.01,0.87,0,1.31   c-0.01,0.48-0.27,0.75-0.75,0.75c-0.47,0-0.74-0.25-0.74-0.74c-0.01-0.5,0-0.99-0.01-1.48c-0.02-1.04-0.63-1.7-1.66-1.84   c-0.22-0.03-0.46-0.05-0.66-0.11c-0.78-0.26-1.29-1.09-1.19-1.88c0.1-0.79,0.79-1.41,1.66-1.46c0.79-0.03,1.6-0.01,2.39-0.01   c0.71-0.01,0.93-0.19,1.08-0.9c0.18-0.9,0.82-1.48,1.74-1.49c1.7-0.02,3.39-0.02,5.08,0C36.51,4.52,37.17,5.23,37.19,6.22z"></path>	<path class="st0" d="M14.64,9.07c-1.22,0.02-2.44,0-3.68,0c-0.05-0.1-0.07-0.16-0.08-0.21C10.33,7.11,8.87,6.01,7.2,6.1   c-1.66,0.1-3.09,1.31-3.4,2.88C3.46,10.74,4.3,12.3,6,13.12c0.18,0.08,0.34,0.27,0.42,0.47c0.46,1.19,1.3,1.93,2.52,2.26   C9.2,15.92,9.46,15.94,9.78,16c0,0.51-0.01,1,0,1.49c0,0.71,0.17,1.37,0.74,1.85c0.83,0.7,1.78,0.81,2.77,0.42   c0.96-0.38,1.39-1.14,1.44-2.14c0.01-0.52,0-1.06,0-1.63c0.23-0.03,0.41-0.05,0.59-0.08c1.04-0.13,1.82-0.63,2.34-1.54   C18.8,12.38,17.92,9.02,14.64,9.07z M14.99,14.23c-1.52,0.18-1.97,0.71-1.97,2.22c0,0.33,0.01,0.65,0,0.97   c-0.02,0.59-0.27,0.88-0.75,0.88c-0.49,0.01-0.75-0.26-0.78-0.84c-0.01-0.43,0-0.88,0-1.31c-0.02-1.14-0.59-1.76-1.71-1.9   c-1.15-0.14-1.64-0.59-1.81-1.74c-0.09-0.57-0.43-0.78-0.96-0.88c-0.98-0.21-1.63-1.04-1.58-1.96C5.49,8.72,6.16,7.98,7.1,7.84   C8.16,7.66,9.17,8.5,9.27,9.61c0.09,1,0.26,1.16,1.28,1.16c1.39,0.01,2.77,0,4.16,0.01c1.09,0.01,1.77,0.68,1.77,1.73   C16.47,13.48,15.93,14.1,14.99,14.23z"></path>	<path class="st1" d="M16.47,12.52c0,0.96-0.55,1.58-1.48,1.71c-1.52,0.18-1.97,0.71-1.97,2.22c0,0.33,0.01,0.65,0,0.97   c-0.02,0.59-0.27,0.88-0.75,0.88c-0.49,0.01-0.75-0.26-0.78-0.84c-0.01-0.43,0-0.88,0-1.31c-0.02-1.14-0.59-1.76-1.71-1.9   c-1.15-0.14-1.64-0.59-1.81-1.74c-0.09-0.57-0.43-0.78-0.96-0.88c-0.98-0.21-1.63-1.04-1.58-1.96C5.49,8.72,6.16,7.98,7.1,7.84   C8.16,7.66,9.17,8.5,9.27,9.61c0.09,1,0.26,1.16,1.28,1.16c1.39,0.01,2.77,0,4.16,0.01C15.8,10.8,16.47,11.47,16.47,12.52z"></path>	<path class="st0" d="M48.58,36.59c-2.26,0-4.53,0-6.79,0c-0.89,0-1.14-0.25-1.14-1.16c0-0.91-0.01-1.83,0-2.74   c0.01-0.71,0.3-1.03,0.99-1.03c4.62-0.01,9.24-0.01,13.86,0c0.69,0,1,0.33,1.01,1.03c0.01,0.93,0.01,1.86,0,2.8   c-0.01,0.82-0.29,1.1-1.09,1.11C53.15,36.6,50.87,36.59,48.58,36.59z M54.78,33.41c-4.14,0-8.26,0-12.38,0c0,0.5,0,0.96,0,1.42   c4.15,0,8.26,0,12.38,0C54.78,34.33,54.78,33.88,54.78,33.41z"></path>	<path class="st0" d="M44.14,43.22c-0.84,0-1.67,0.01-2.51,0c-0.68-0.01-0.97-0.3-0.98-0.97c-0.01-0.99-0.01-1.98,0-2.96   c0.01-0.67,0.31-0.99,0.97-0.99c1.71-0.01,3.42-0.01,5.13,0c0.62,0,0.95,0.33,0.96,0.96c0.02,1.01,0.02,2.01,0,3.02   c-0.01,0.64-0.32,0.94-0.96,0.95C45.89,43.23,45.02,43.22,44.14,43.22z M42.41,40.03c0,0.53,0,0.99,0,1.45c1.21,0,2.38,0,3.57,0   c0-0.5,0-0.96,0-1.45C44.78,40.03,43.61,40.03,42.41,40.03z"></path>	<path class="st0" d="M52.98,43.22c-0.86,0-1.71,0.01-2.57,0c-0.67-0.01-0.96-0.31-0.97-0.98c-0.01-0.99-0.01-1.98,0-2.96   c0.01-0.66,0.32-0.98,0.98-0.98c1.69-0.01,3.38-0.01,5.07,0c0.68,0,1,0.33,1.01,1.03c0.01,0.97,0.01,1.94,0,2.91   c-0.01,0.7-0.32,0.99-1.03,1C54.66,43.23,53.82,43.23,52.98,43.22z M54.78,40.04c-1.21,0-2.4,0-3.58,0c0,0.5,0,0.97,0,1.42   c1.22,0,2.4,0,3.58,0C54.78,40.96,54.78,40.51,54.78,40.04z"></path>	<path class="st0" d="M44.17,49.86c-0.84,0-1.67,0.01-2.51,0c-0.71-0.01-0.99-0.3-1-1.01c-0.01-0.97-0.01-1.94,0-2.91   c0.01-0.7,0.31-1.01,1.01-1.02c1.67-0.01,3.34-0.01,5.02,0c0.72,0,1.04,0.32,1.05,1.05c0.01,0.95,0.01,1.9,0,2.85   c-0.01,0.73-0.31,1.03-1.05,1.03C45.84,49.87,45,49.86,44.17,49.86z M42.41,46.66c0,0.52,0,0.99,0,1.45c1.21,0,2.38,0,3.57,0   c0-0.5,0-0.96,0-1.45C44.78,46.66,43.61,46.66,42.41,46.66z"></path>	<path class="st0" d="M52.99,49.86c-0.86,0-1.71,0.01-2.57,0c-0.68-0.01-0.96-0.31-0.97-0.98c-0.01-0.99-0.01-1.98,0-2.96   c0.01-0.66,0.31-0.98,0.98-0.99c1.69-0.01,3.38-0.01,5.07,0c0.69,0,1.01,0.33,1.02,1.03c0.01,0.97,0.01,1.94,0,2.91   c-0.01,0.69-0.32,0.99-1.03,1C54.66,49.87,53.82,49.86,52.99,49.86z M54.78,46.67c-1.22,0-2.4,0-3.58,0c0,0.51,0,0.97,0,1.44   c1.21,0,2.38,0,3.58,0C54.78,47.63,54.78,47.18,54.78,46.67z"></path>	<path class="st0" d="M20.69,51.36c3.82,0,7.64,0,11.47,0c0.21,0,0.42-0.01,0.62,0.03c0.43,0.09,0.71,0.41,0.64,0.81   c-0.06,0.3-0.34,0.6-0.6,0.79c-0.17,0.12-0.48,0.07-0.72,0.07c-7.61,0-15.21,0-22.82,0c-0.25,0-0.5,0-0.74-0.06   c-0.42-0.1-0.64-0.41-0.63-0.84c0.02-0.43,0.25-0.71,0.69-0.79c0.2-0.04,0.42-0.03,0.63-0.03C13.05,51.36,16.87,51.36,20.69,51.36z   "></path>	<path class="st0" d="M18.89,44.66c0.46,0,0.91-0.01,1.37,0c0.62,0.01,0.95,0.29,0.96,0.89c0.03,0.97,0.03,1.94,0,2.91   c-0.02,0.56-0.36,0.87-0.92,0.88c-0.95,0.02-1.9,0.02-2.85,0c-0.57-0.01-0.88-0.33-0.89-0.9c-0.02-0.97-0.02-1.94,0-2.91   c0.01-0.57,0.33-0.84,0.91-0.87c0.04,0,0.08,0,0.11,0C18.02,44.66,18.45,44.66,18.89,44.66z M18.28,47.58c0.44,0,0.82,0,1.21,0   c0-0.42,0-0.79,0-1.17c-0.42,0-0.81,0-1.21,0C18.28,46.82,18.28,47.18,18.28,47.58z"></path>	<path class="st0" d="M27.33,47c0,0.48,0.01,0.95,0,1.43c-0.02,0.57-0.32,0.89-0.88,0.91c-0.97,0.02-1.94,0.02-2.91,0   c-0.55-0.01-0.87-0.35-0.88-0.92c-0.02-0.95-0.02-1.9,0-2.85c0.01-0.59,0.34-0.89,0.95-0.9c0.93-0.01,1.86-0.01,2.79,0   c0.61,0.01,0.9,0.31,0.93,0.91c0,0.04,0,0.08,0,0.11C27.33,46.13,27.33,46.57,27.33,47z M25.57,47.61c0-0.44,0-0.82,0-1.21   c-0.41,0-0.78,0-1.18,0c0,0.41,0,0.8,0,1.21C24.8,47.61,25.17,47.61,25.57,47.61z"></path>	<path class="st0" d="M28.78,47c0-0.48-0.01-0.95,0-1.43c0.02-0.58,0.31-0.89,0.87-0.91c0.97-0.02,1.94-0.02,2.91,0   c0.56,0.01,0.88,0.32,0.89,0.9c0.02,0.95,0.02,1.9,0,2.85c-0.01,0.59-0.35,0.91-0.94,0.92c-0.93,0.02-1.86,0.02-2.79,0   c-0.62-0.01-0.92-0.33-0.94-0.97C28.77,47.91,28.78,47.45,28.78,47z M30.52,47.6c0.43,0,0.8,0,1.19,0c0-0.42,0-0.8,0-1.2   c-0.41,0-0.79,0-1.19,0C30.52,46.81,30.52,47.18,30.52,47.6z"></path></g></svg>