<svg xmlns="http://www.w3.org/2000/svg" xmlns:xlink="http://www.w3.org/1999/xlink" id="Layer_1" x="0px" y="0px" viewBox="0 0 64 64" style="enable-background:new 0 0 64 64;" xml:space="preserve"><style type="text/css">	.st0{fill:#1F8BED;}	.st1{opacity:0.31;fill:#1F8BED;}</style><g>	<path class="st0" d="M59.48,40.69c-0.26-0.06-0.53-0.12-0.8-0.15c-1.48-0.19-2.8-0.71-4.06-1.53c-1.5-1-3.07-1.88-4.62-2.8   c-2.36-1.41-4.93-2.17-7.68-2.18c-3.34-0.02-6.66-0.02-9.98,0c-2.3,0.01-4.5,0.52-6.53,1.6c-5.95,3.19-11.9,6.39-17.81,9.65   c-2.66,1.46-4.33,3.78-5.14,6.68c-0.33,1.23-0.62,2.48-0.93,3.72c-0.23,0.94,0.18,1.45,1.15,1.45c1.73,0.01,3.48,0.01,5.21,0.01   h0.65c0.77,3.03,2.93,4.9,5.67,5.01c1.37,0.06,2.61-0.3,3.73-1.08c1.37-0.95,2.17-2.28,2.52-3.91h22.24c0.96,3.23,3.12,5.01,6.03,5   c2.18-0.01,5.06-1.32,5.91-4.99c0.08-0.02,0.13-0.04,0.17-0.04c4.25-0.32,6.93-3.19,6.93-7.46v-5.72   C62.15,42.16,61.24,41.05,59.48,40.69z M60.11,43.5v3.57c-0.33,0-0.64,0.07-0.9-0.02c-0.34-0.12-0.8-0.3-0.93-0.57   c-0.14-0.32-0.12-0.88,0.08-1.15C58.82,44.69,59.45,44.17,60.11,43.5z M8.53,47.22c0.09,0.05,0.2,0.08,0.31,0.13   c-0.04,0.42,0.05,0.91-0.14,1.25c-0.46,0.81-1.31,0.38-1.98,0.51C6.68,49.06,6.65,49,6.61,48.94C7.25,48.37,7.89,47.79,8.53,47.22z    M14.93,60.15c-2.22,0.01-4.04-1.8-4.04-4.02c-0.01-2.2,1.78-4,3.97-4.02c2.23-0.01,4.06,1.77,4.07,3.99   C18.95,58.31,17.15,60.13,14.93,60.15z M49.04,60.15c-2.18-0.02-3.98-1.83-3.98-4.02c0-2.22,1.8-4.02,4.02-4.02   c2.22,0.01,4.02,1.83,4.01,4.05C53.09,58.37,51.26,60.16,49.04,60.15z M55.06,55.07c-1.1-3.37-3.21-5.06-6.21-4.97   c-2.78,0.08-4.95,1.97-5.72,5.01H20.87c-0.37-1.72-1.25-3.12-2.75-4.08c-1.09-0.69-2.29-0.99-3.59-0.91   c-2.69,0.14-4.71,1.94-5.59,4.99H4.09c0.38-1.28,0.75-2.54,1.14-3.78c0.04-0.11,0.28-0.2,0.44-0.21c0.66-0.02,1.33,0,2.01,0   c2.48-0.02,3.92-2.29,2.87-4.56c-0.05-0.09-0.08-0.19-0.14-0.32c1.83-1,3.66-1.98,5.47-2.97c3.63-1.96,7.27-3.94,10.93-5.89   c1.72-0.91,3.6-1.33,5.56-1.34c3.3-0.01,6.61-0.01,9.93,0c2.51,0.01,4.81,0.75,6.95,2.05c1.75,1.07,3.53,2.09,5.26,3.18   c0.89,0.57,1.82,0.91,2.85,1.06c0.26,0.04,0.51,0.11,1,0.23c-0.49,0.44-0.87,0.75-1.22,1.09c-1.03,1.02-1.28,2.23-0.77,3.57   c0.46,1.22,1.56,1.88,3.05,1.88h0.66C60.56,52.37,58.03,55.35,55.06,55.07z"></path>	<path class="st1" d="M60.07,49.08h-0.66c-1.5,0-2.59-0.65-3.05-1.88c-0.51-1.34-0.26-2.55,0.77-3.57c0.36-0.34,0.74-0.65,1.22-1.09   c-0.49-0.12-0.74-0.19-1-0.23c-1.03-0.14-1.96-0.49-2.85-1.06c-1.73-1.09-3.51-2.11-5.26-3.18c-2.14-1.31-4.44-2.04-6.95-2.05   c-3.31-0.01-6.62-0.01-9.93,0c-1.96,0.01-3.83,0.43-5.56,1.34c-3.67,1.95-7.3,3.93-10.93,5.89c-1.82,0.99-3.64,1.97-5.47,2.97   c0.06,0.13,0.09,0.23,0.14,0.32c1.04,2.27-0.39,4.54-2.87,4.56c-0.68,0-1.34-0.02-2.01,0c-0.15,0.01-0.4,0.11-0.44,0.21   c-0.39,1.23-0.76,2.49-1.14,3.78h4.84c0.88-3.05,2.9-4.84,5.59-4.99c1.29-0.07,2.49,0.23,3.59,0.91c1.51,0.96,2.39,2.36,2.75,4.08   h22.26c0.77-3.04,2.94-4.93,5.72-5.01c3-0.08,5.11,1.6,6.21,4.97C58.03,55.35,60.56,52.37,60.07,49.08z M36.98,51.06h-3.93V49.1   h3.93V51.06z M50.78,44.12c-0.49,1.79-2.02,2.96-3.95,2.96h-14.2c-4.78,0-9.58,0.01-14.38-0.02c-0.37,0-0.84-0.15-1.1-0.42   c-0.46-0.46-0.24-1.13,0.45-1.53c1.88-1.1,3.75-2.21,5.64-3.29c1.59-0.93,3.17-1.88,4.8-2.73c1.41-0.74,2.96-1.04,4.55-1.06   c3.55-0.01,7.11-0.01,10.67,0c2.01,0.01,3.88,0.56,5.6,1.59C50.5,40.62,51.25,42.38,50.78,44.12z"></path>	<path class="st0" d="M20.32,18.88c-2.11-2.09-4.2-4.2-6.32-6.29c-0.27-0.26-0.36-0.47-0.24-0.87c0.4-1.35-0.18-2.77-1.38-3.44   c-1.2-0.69-2.67-0.49-3.64,0.5c-0.95,0.95-1.14,2.41-0.49,3.59c0.69,1.21,2.08,1.8,3.44,1.41c0.4-0.13,0.64-0.02,0.91,0.25   c1.96,1.98,3.93,3.95,5.9,5.9c0.32,0.31,0.43,0.62,0.43,1.04c-0.02,4.77-0.01,9.55-0.01,14.32v0.7h2.01v-0.66   c0-4.99-0.01-9.97,0.01-14.95C20.95,19.76,20.75,19.31,20.32,18.88z M10.88,11.89c-0.55,0-0.99-0.45-1-1c0-0.56,0.49-1.02,1.04-1   c0.55,0.01,0.97,0.49,0.96,1.02C11.88,11.46,11.42,11.9,10.88,11.89z"></path>	<path class="st1" d="M11.89,10.91c-0.01,0.55-0.47,0.99-1.01,0.97c-0.55,0-0.99-0.45-1-1c0-0.56,0.49-1.02,1.04-1   C11.48,9.91,11.91,10.38,11.89,10.91z"></path>	<path class="st0" d="M34.9,4.06c-0.37-1.32-1.57-2.23-2.93-2.22c-1.34,0.01-2.52,0.91-2.87,2.21c-0.36,1.33,0.18,2.74,1.39,3.4   c0.43,0.23,0.52,0.47,0.51,0.91c-0.01,7.62,0,15.24,0,22.85v0.76H33v-0.82c0-7.59,0-15.18-0.01-22.78c0-0.44,0.08-0.7,0.51-0.93   C34.71,6.8,35.26,5.38,34.9,4.06z M32.03,5.86C31.49,5.88,31.02,5.44,31,4.91c-0.02-0.57,0.44-1.04,1-1.04   c0.55-0.01,1,0.44,1.01,0.99C33,5.38,32.56,5.85,32.03,5.86z"></path>	<path class="st1" d="M33,4.85c0,0.53-0.44,1-0.97,1.01C31.49,5.88,31.02,5.44,31,4.91c-0.02-0.57,0.44-1.04,1-1.04   C32.54,3.85,32.99,4.3,33,4.85z"></path>	<path class="st0" d="M27.96,24.96c-0.01-0.3-0.23-0.63-0.44-0.87c-0.71-0.76-1.48-1.47-2.2-2.23c-0.19-0.2-0.34-0.53-0.34-0.81   c-0.02-3.26-0.01-6.53-0.02-9.79c0-0.38,0.11-0.58,0.45-0.76c1.23-0.66,1.8-2.03,1.47-3.36c-0.36-1.37-1.56-2.29-2.94-2.28   c-1.37,0.01-2.54,0.94-2.89,2.27c-0.34,1.33,0.23,2.71,1.45,3.36c0.38,0.2,0.46,0.43,0.46,0.82c-0.01,3.43,0,6.87-0.01,10.31   c0,0.51,0.14,0.91,0.52,1.27c0.71,0.69,1.38,1.4,2.09,2.08c0.3,0.28,0.43,0.57,0.42,0.99c-0.01,2.32-0.01,4.64-0.01,7.02h2.01   C27.97,30.27,27.99,27.61,27.96,24.96z M23.94,8.87c-0.53,0-0.99-0.45-0.99-0.99c-0.01-0.57,0.47-1.03,1.03-1.01   c0.55,0.01,0.97,0.47,0.96,1.02C24.94,8.43,24.49,8.88,23.94,8.87z"></path>	<path class="st1" d="M24.95,7.9c-0.01,0.53-0.46,0.99-1.01,0.97c-0.53,0-0.99-0.45-0.99-0.99c-0.01-0.57,0.47-1.03,1.03-1.01   C24.54,6.89,24.97,7.35,24.95,7.9z"></path>	<path class="st0" d="M42.95,7.13c-0.36-1.33-1.53-2.26-2.9-2.27c-1.39-0.01-2.59,0.93-2.93,2.28c-0.34,1.37,0.24,2.69,1.52,3.38   c0.31,0.17,0.4,0.34,0.4,0.68c-0.01,3.29,0,6.58-0.02,9.85c0,0.27-0.15,0.61-0.34,0.81c-0.7,0.75-1.47,1.42-2.15,2.2   c-0.27,0.32-0.47,0.8-0.49,1.21c-0.05,2.05-0.02,4.1-0.02,6.15c0,0.18,0.02,0.37,0.04,0.56h1.97c0-1.98,0.04-3.88-0.01-5.78   c-0.01-0.61,0.17-1.02,0.61-1.41c0.59-0.55,1.13-1.16,1.73-1.71c0.51-0.46,0.71-0.97,0.7-1.66c-0.02-3.38,0-6.78-0.01-10.16   c0-0.34,0.06-0.55,0.4-0.74C42.73,9.83,43.31,8.48,42.95,7.13z M40.04,8.87c-0.56,0.01-1.03-0.47-1.01-1.03   c0.02-0.55,0.49-0.97,1.03-0.96c0.53,0.01,0.97,0.46,0.97,1.01C41.03,8.42,40.59,8.87,40.04,8.87z"></path>	<path class="st1" d="M41.04,7.89c-0.01,0.53-0.45,0.99-1,0.99c-0.56,0.01-1.03-0.47-1.01-1.03c0.02-0.55,0.49-0.97,1.03-0.96   C40.6,6.89,41.04,7.34,41.04,7.89z"></path>	<path class="st0" d="M55.24,8.77c-0.96-0.97-2.46-1.18-3.63-0.49c-1.21,0.69-1.79,2.09-1.38,3.44c0.12,0.39,0.04,0.61-0.24,0.87   c-2.13,2.1-4.23,4.24-6.36,6.34c-0.39,0.39-0.58,0.81-0.58,1.38c0.01,3.69,0.01,7.37,0.01,11.05c0,0.2,0.01,0.4,0.02,0.61h1.98   c0-3.73-0.01-7.4,0.01-11.05c0-0.31,0.15-0.7,0.38-0.91c1.96-2.01,3.95-3.98,5.92-5.97c0.28-0.28,0.51-0.37,0.91-0.25   c1.33,0.39,2.72-0.19,3.41-1.37C56.39,11.24,56.21,9.74,55.24,8.77z M53.13,11.89c-0.55,0.01-1.01-0.43-1.02-0.96   c-0.02-0.57,0.45-1.04,1.01-1.03c0.55,0,0.99,0.45,0.99,1C54.1,11.43,53.66,11.88,53.13,11.89z"></path>	<path class="st1" d="M54.1,10.89c0,0.53-0.44,0.99-0.97,1c-0.55,0.01-1.01-0.43-1.02-0.96c-0.02-0.57,0.45-1.04,1.01-1.03   C53.66,9.89,54.1,10.34,54.1,10.89z"></path>	<path class="st0" d="M14.89,28.12c0-0.36-0.25-0.8-0.51-1.07c-1.44-1.5-2.91-2.96-4.38-4.4c-0.26-0.26-0.37-0.46-0.25-0.85   c0.42-1.37-0.18-2.77-1.37-3.45c-1.19-0.69-2.67-0.49-3.64,0.49c-0.96,0.96-1.15,2.46-0.46,3.63c0.69,1.2,2.09,1.77,3.45,1.35   c0.36-0.11,0.57-0.04,0.81,0.21c1.33,1.34,2.67,2.66,3.98,4.01c0.21,0.23,0.37,0.61,0.38,0.91c0.02,3.47,0.01,6.95,0.01,10.41v0.66   h1.97c0.02-0.13,0.04-0.21,0.04-0.3C14.91,35.86,14.92,31.99,14.89,28.12z M6.9,21.94c-0.55,0.01-1.01-0.43-1.02-0.96   c-0.02-0.57,0.44-1.04,1.01-1.04c0.53,0.01,0.99,0.45,0.99,1C7.88,21.48,7.43,21.93,6.9,21.94z"></path>	<path class="st1" d="M7.87,20.94c0.01,0.55-0.44,1-0.97,1.01c-0.55,0.01-1.01-0.43-1.02-0.96c-0.02-0.57,0.44-1.04,1.01-1.04   C7.42,19.95,7.87,20.39,7.87,20.94z"></path>	<path class="st0" d="M59.25,18.81c-0.97-0.97-2.47-1.16-3.64-0.47c-1.2,0.69-1.77,2.09-1.35,3.45c0.12,0.4,0,0.61-0.25,0.85   c-1.47,1.46-2.93,2.93-4.4,4.39c-0.37,0.36-0.53,0.76-0.52,1.27c0.02,1.7,0,3.4,0,5.08v0.61h2.02c0-1.72-0.02-3.4,0.01-5.06   c0.01-0.3,0.14-0.66,0.34-0.87c1.32-1.37,2.68-2.69,4.01-4.06c0.25-0.25,0.46-0.3,0.82-0.19c1.35,0.4,2.77-0.18,3.44-1.38   C60.42,21.26,60.21,19.77,59.25,18.81z M57.13,21.94c-0.56,0-1.03-0.47-1.01-1.04c0.02-0.53,0.49-0.97,1.03-0.96   c0.53,0.01,0.97,0.47,0.97,1.01C58.12,21.49,57.67,21.94,57.13,21.94z"></path>	<path class="st1" d="M58.12,20.95c0,0.55-0.45,1-1,1c-0.56,0-1.03-0.47-1.01-1.04c0.02-0.53,0.49-0.97,1.03-0.96   C57.69,19.95,58.12,20.41,58.12,20.95z"></path>	<path class="st0" d="M11.15,39.87C10.07,38.79,9,37.7,7.89,36.64c-0.31-0.3-0.39-0.52-0.21-0.96c0.49-1.23,0.05-2.62-1.01-3.42   c-1.06-0.8-2.51-0.81-3.57-0.04c-1.06,0.76-1.5,2.1-1.1,3.35c0.38,1.25,1.57,2.23,2.88,2.05c0.99-0.13,1.52,0.28,2.1,0.91   c0.82,0.89,1.72,1.71,2.56,2.59c0.2,0.2,0.32,0.49,0.49,0.74c0.63-0.62,1.07-1.06,1.54-1.53C11.42,40.17,11.29,40.01,11.15,39.87z    M4.85,35.66c-0.56,0-1-0.44-1-1c0.01-0.53,0.47-1,1.01-1c0.53,0,1,0.46,1,1.01C5.86,35.22,5.41,35.66,4.85,35.66z"></path>	<path class="st1" d="M5.86,34.67c0,0.55-0.45,0.99-1.01,0.99c-0.56,0-1-0.44-1-1c0.01-0.53,0.47-1,1.01-1   C5.4,33.66,5.86,34.13,5.86,34.67z"></path>	<path class="st0" d="M61.13,28.74c-1.02-0.9-2.53-1.01-3.66-0.25c-1.16,0.77-1.65,2.21-1.15,3.53c0.14,0.39,0.07,0.58-0.21,0.83   c-0.89,0.78-1.76,1.6-2.67,2.43c0.45,0.5,0.87,0.96,1.35,1.48c0.97-0.89,1.9-1.76,2.86-2.59c0.2-0.17,0.56-0.27,0.81-0.24   c1.4,0.26,2.74-0.36,3.37-1.6C62.43,31.11,62.16,29.65,61.13,28.74z M59.16,32c-0.53,0.01-1.01-0.43-1.02-0.96   c-0.02-0.55,0.4-1.02,0.94-1.04c0.57-0.04,1.06,0.43,1.06,1C60.14,31.53,59.69,31.98,59.16,32z"></path>	<path class="st1" d="M60.13,30.99c0.01,0.53-0.44,0.99-0.97,1.01c-0.53,0.01-1.01-0.43-1.02-0.96c-0.02-0.55,0.4-1.02,0.94-1.04   C59.64,29.96,60.13,30.42,60.13,30.99z"></path>	<path class="st0" d="M48.85,39.62c-1.72-1.03-3.6-1.58-5.6-1.59c-3.56-0.01-7.12-0.01-10.67,0c-1.59,0.01-3.13,0.32-4.55,1.06   c-1.63,0.85-3.21,1.8-4.8,2.73c-1.89,1.08-3.76,2.18-5.64,3.29c-0.69,0.4-0.91,1.07-0.45,1.53c0.26,0.26,0.74,0.42,1.1,0.42   c4.8,0.04,9.59,0.02,14.38,0.02h14.2c1.94,0,3.47-1.16,3.95-2.96C51.25,42.38,50.5,40.62,48.85,39.62z M36.99,45.02H21.75   c0.45-0.27,0.8-0.49,1.15-0.69c1.69-0.99,3.37-1.95,5.03-2.94c1.56-0.91,3.22-1.38,5.02-1.35c1.33,0.01,2.67,0,4.04,0V45.02z    M48.83,43.65c-0.26,0.93-0.99,1.41-2.1,1.42h-7.67v-5.03c2.96,0.08,5.96-0.44,8.68,1.26C48.72,41.9,49.09,42.67,48.83,43.65z"></path>	<rect x="33.05" y="49.1" class="st0" width="3.93" height="1.96"></rect>	<path class="st0" d="M13.94,55.15c0.65,0,1.27,0,1.93,0c0,0.64,0,1.27,0,1.94c-0.63,0-1.26,0-1.93,0   C13.94,56.46,13.94,55.84,13.94,55.15z"></path>	<path class="st0" d="M50.06,57.1c-0.65,0-1.27,0-1.93,0c0-0.64,0-1.27,0-1.94c0.63,0,1.27,0,1.93,0   C50.06,55.79,50.06,56.41,50.06,57.1z"></path></g></svg>