<svg xmlns="http://www.w3.org/2000/svg" xmlns:xlink="http://www.w3.org/1999/xlink" id="Layer_1" x="0px" y="0px" viewBox="0 0 64 64" style="enable-background:new 0 0 64 64;" xml:space="preserve"><style type="text/css">	.st0{fill:#1F8BED;}	.st1{opacity:0.31;fill:#1F8BED;}</style><g>	<path class="st0" d="M60.89,21.25c0-0.76-0.25-1.1-0.97-1.34c-4.08-1.27-8.16-2.56-12.26-3.81c-0.34-0.11-0.76-0.04-1.14,0.01   c-0.32,0.04-0.61,0.17-0.98,0.29V9.37c-0.01-2.13-1.45-3.55-3.59-3.55c-2.44-0.01-4.89,0-7.33,0h-0.7c0-0.53,0.01-1.01,0-1.48   c-0.01-0.78-0.44-1.23-1.24-1.23H15.93c-0.78,0-1.2,0.44-1.21,1.24c-0.01,0.47,0,0.93,0,1.47h-0.65c-2.28,0-4.56,0.06-6.83-0.02   C4.96,5.71,3.59,6.74,3.1,8.64v49.44c0.39,1.48,1.34,2.43,2.83,2.82h10.26c0.26-0.28,0.64-0.53,0.76-0.86   c0.26-0.74-0.34-1.4-1.23-1.4c-2.99-0.01-5.98,0-8.97,0c-0.97,0-1.39-0.4-1.39-1.36c-0.01-15.95-0.01-31.89,0-47.84   c0-0.97,0.4-1.36,1.37-1.36h7.45c0.16,0,0.33,0.02,0.53,0.04c0,0.42-0.01,0.78,0,1.15c0.04,1.36,1.04,2.41,2.4,2.41   c4.79,0.01,9.6,0.01,14.39,0c1.36,0,2.38-1.04,2.41-2.4c0.01-0.38,0-0.77,0-1.18c0.2-0.01,0.33-0.02,0.45-0.02   c2.53,0,5.05-0.01,7.56,0c0.93,0,1.34,0.42,1.34,1.35c0.01,2.4,0,4.82,0.01,7.22c0,0.37-0.1,0.51-0.45,0.63   c-1.62,0.49-3.22,1.02-4.84,1.51c-0.28,0.09-0.59,0.11-0.88,0.11H24.81c-0.21,0-0.42,0-0.63,0.01c-0.64,0.06-1.05,0.55-1.02,1.19   c0.05,0.66,0.53,1.05,1.35,1.05c2.73,0.01,5.45,0,8.19,0h0.61v10.05h-2.07c-2.32,0-4.62-0.01-6.94,0   c-0.67,0.01-1.12,0.45-1.14,1.08c-0.01,0.63,0.4,1.09,1.07,1.16c0.16,0.02,0.33,0.01,0.5,0.01h8.69c0.02,0.12,0.05,0.18,0.05,0.26   c0.93,5.97,4.08,10.31,9.49,13.03c0.16,0.07,0.31,0.32,0.31,0.5c0.04,0.65,0.02,1.31,0.02,1.97v2.32c-1.29,0-2.49-0.01-3.69,0   c-1.96,0.01-3.41,1.47-3.42,3.44c-0.01,0.96-0.01,1.91-0.01,2.87v0.8h-3c-2.34,0-4.67-0.01-7,0c-0.64,0-1.05,0.29-1.2,0.82   c-0.16,0.58,0.07,0.98,0.54,1.3c0.06,0.04,0.11,0.09,0.17,0.13h11.96c0.29-0.26,0.61-0.49,0.89-0.76c2.13-2.13,4.24-4.27,6.39-6.37   c0.45-0.44,0.65-0.92,0.64-1.56c-0.04-1.48-0.01-2.97-0.01-4.44c0.06-0.02,0.1-0.05,0.12-0.04c1.58,0.63,3.04,0.01,4.47-0.53   c6.39-2.41,10.69-8.57,10.74-15.41C60.92,28.27,60.89,24.76,60.89,21.25z M31.67,9.09c0,0.38-0.26,0.34-0.5,0.34h-5.01   c-2.87,0-5.75-0.01-8.62,0c-0.47,0.01-0.59-0.13-0.58-0.58c0.02-1.14,0.01-2.28,0.01-3.46h14.7C31.67,6.65,31.66,7.86,31.67,9.09z    M38.5,56.91c0-0.8-0.06-1.58,0.02-2.35c0.05-0.47,0.47-0.74,0.94-0.76c0.69-0.04,1.37-0.01,2.16-0.01L38.5,56.91z M58.63,31.9   c-0.07,6.46-4.73,12.26-11.02,13.73c-0.32,0.07-0.67,0.07-0.99-0.01c-6.33-1.5-10.93-7.28-11-13.79c-0.02-3.17-0.01-6.35-0.01-9.54   c0-0.12,0.01-0.26,0.02-0.42c2.32-0.72,4.62-1.45,6.93-2.17c1.39-0.43,2.76-0.87,4.14-1.27c0.27-0.07,0.6-0.07,0.87,0   c3.55,1.09,7.1,2.21,10.65,3.3c0.32,0.1,0.43,0.25,0.43,0.59C58.63,25.52,58.66,28.71,58.63,31.9z"></path>	<path class="st1" d="M31.67,5.4c0,1.25-0.01,2.46,0,3.69c0,0.38-0.26,0.34-0.5,0.34h-5.01c-2.87,0-5.75-0.01-8.62,0   c-0.47,0.01-0.59-0.13-0.58-0.58c0.02-1.14,0.01-2.28,0.01-3.46H31.67z"></path>	<path class="st0" d="M20.6,60.89c-0.44-0.31-0.83-0.65-0.76-1.26c0.06-0.51,0.49-0.93,1-0.99c0.49-0.06,0.97,0.23,1.16,0.7   c0.2,0.49,0.04,1.02-0.4,1.34c-0.1,0.08-0.22,0.14-0.32,0.21C21.05,60.89,20.82,60.89,20.6,60.89z"></path>	<path class="st0" d="M29.4,43.5c1.6,0,3.2,0,4.79,0c0.84,0,1.34,0.42,1.35,1.1c0.01,0.71-0.51,1.15-1.37,1.15   c-3.21,0-6.43,0-9.64,0c-0.08,0-0.15,0-0.23,0c-0.7-0.05-1.15-0.5-1.15-1.14c0-0.65,0.46-1.1,1.16-1.11   C26.02,43.49,27.71,43.5,29.4,43.5z"></path>	<path class="st0" d="M13.79,48.03c1.2-1.2,2.3-2.3,3.4-3.4c0.19-0.19,0.36-0.38,0.56-0.55c0.51-0.44,1.13-0.44,1.57,0   c0.44,0.44,0.46,1.06,0.03,1.57c-0.07,0.09-0.15,0.17-0.23,0.25c-1.42,1.42-2.84,2.85-4.27,4.26c-0.76,0.75-1.29,0.75-2.06-0.02   c-0.57-0.57-1.15-1.14-1.71-1.72c-0.52-0.54-0.54-1.18-0.07-1.65c0.46-0.46,1.13-0.45,1.65,0.06   C13.04,47.19,13.38,47.59,13.79,48.03z"></path>	<path class="st0" d="M13.89,23.32c1.24-1.24,2.47-2.47,3.7-3.71c0.39-0.39,0.81-0.61,1.36-0.39c0.77,0.31,0.95,1.21,0.35,1.85   c-0.63,0.67-1.3,1.31-1.95,1.96c-0.86,0.86-1.72,1.73-2.59,2.59c-0.65,0.63-1.22,0.63-1.86,0.01c-0.6-0.59-1.2-1.19-1.79-1.79   c-0.55-0.57-0.58-1.21-0.1-1.69c0.47-0.47,1.14-0.42,1.7,0.11c0.35,0.34,0.7,0.68,1.05,1.02C13.78,23.3,13.8,23.3,13.89,23.32z"></path>	<path class="st0" d="M13.8,35.71c1.27-1.27,2.46-2.47,3.66-3.66c0.16-0.16,0.32-0.32,0.51-0.44c0.46-0.29,1.01-0.21,1.39,0.19   c0.36,0.38,0.42,0.9,0.14,1.35c-0.1,0.16-0.23,0.3-0.36,0.43c-1.42,1.42-2.84,2.85-4.26,4.26c-0.76,0.76-1.3,0.76-2.06,0   c-0.57-0.57-1.15-1.14-1.71-1.72c-0.53-0.54-0.55-1.17-0.09-1.65c0.46-0.48,1.15-0.46,1.7,0.08C13.06,34.9,13.4,35.28,13.8,35.71z"></path>	<path class="st0" d="M28.17,48.45c1.22,0,2.45-0.01,3.67,0c0.81,0.01,1.28,0.42,1.29,1.1c0.01,0.69-0.5,1.15-1.31,1.15   c-2.45,0.01-4.89,0.01-7.34,0c-0.83,0-1.32-0.44-1.32-1.14c0-0.7,0.49-1.1,1.34-1.11C25.73,48.44,26.95,48.45,28.17,48.45z"></path>	<path class="st0" d="M26.98,36.14c0.83,0,1.65-0.01,2.48,0c0.77,0.01,1.28,0.47,1.27,1.13c-0.01,0.64-0.49,1.11-1.24,1.12   c-1.71,0.02-3.42,0.02-5.12,0c-0.75-0.01-1.2-0.48-1.2-1.14c0-0.66,0.47-1.09,1.22-1.11C25.25,36.13,26.11,36.14,26.98,36.14z"></path>	<path class="st0" d="M26.85,23.84c0.81,0,1.62-0.01,2.42,0c0.72,0.01,1.18,0.45,1.2,1.08c0.02,0.65-0.45,1.15-1.18,1.16   c-1.65,0.02-3.31,0.02-4.96,0c-0.74-0.01-1.19-0.5-1.17-1.17c0.02-0.64,0.47-1.06,1.2-1.07C25.19,23.83,26.02,23.84,26.85,23.84z"></path>	<path class="st0" d="M56.38,28.4v-3.84c-0.01-0.75-0.25-1.09-0.97-1.32c-2.62-0.82-5.23-1.64-7.86-2.44   c-0.26-0.07-0.58-0.09-0.82-0.01c-2.66,0.81-5.31,1.64-7.96,2.48c-0.66,0.21-0.91,0.56-0.91,1.25c-0.01,2.46-0.02,4.93,0,7.39   c0.07,5.2,3.73,9.95,8.74,11.38c0.32,0.09,0.71,0.1,1.03-0.01c4.63-1.51,7.54-4.63,8.48-9.41c0.34-1.77,0.25-3.63,0.36-5.44   C56.44,28.41,56.41,28.41,56.38,28.4z M54.1,31.9c-0.07,4.02-2.75,7.69-6.53,9.01c-0.26,0.1-0.59,0.1-0.85,0.01   c-3.71-1.24-6.46-4.94-6.58-8.86c-0.04-1.05,0-2.11,0-3.16c-0.01,0-0.01,0-0.01,0c0-1.07,0.01-2.15-0.01-3.21   c0-0.36,0.07-0.53,0.45-0.64c2.06-0.61,4.12-1.27,6.18-1.91c0.23-0.06,0.53-0.07,0.76,0c2.05,0.63,4.08,1.27,6.13,1.9   c0.37,0.11,0.5,0.26,0.5,0.66C54.1,27.76,54.15,29.83,54.1,31.9z"></path>	<path class="st1" d="M53.64,25.04c-2.05-0.63-4.08-1.27-6.13-1.9c-0.23-0.07-0.53-0.06-0.76,0c-2.06,0.64-4.12,1.3-6.18,1.91   c-0.38,0.11-0.45,0.28-0.45,0.64c0.02,1.07,0.01,2.15,0.01,3.21c0,0,0,0,0.01,0c0,1.05-0.04,2.11,0,3.16   c0.12,3.92,2.87,7.62,6.58,8.86c0.26,0.09,0.59,0.09,0.85-0.01c3.79-1.32,6.46-4.99,6.53-9.01c0.05-2.07,0-4.14,0.04-6.2   C54.14,25.29,54,25.15,53.64,25.04z M51.53,30.48c-1.53,1.56-3.08,3.1-4.63,4.62c-0.45,0.45-1.12,0.45-1.57,0   c-0.88-0.85-1.75-1.72-2.6-2.6c-0.48-0.49-0.45-1.16,0.01-1.61c0.44-0.42,1.1-0.43,1.58,0.04c0.59,0.58,1.14,1.19,1.77,1.83   c1.31-1.31,2.53-2.55,3.75-3.76c0.6-0.6,1.43-0.55,1.84,0.09C51.97,29.54,51.93,30.06,51.53,30.48z"></path>	<path class="st0" d="M51.53,30.48c-1.53,1.56-3.08,3.1-4.63,4.62c-0.45,0.45-1.12,0.45-1.57,0c-0.88-0.85-1.75-1.72-2.6-2.6   c-0.48-0.49-0.45-1.16,0.01-1.61c0.44-0.42,1.1-0.43,1.58,0.04c0.59,0.58,1.14,1.19,1.77,1.83c1.31-1.31,2.53-2.55,3.75-3.76   c0.6-0.6,1.43-0.55,1.84,0.09C51.97,29.54,51.93,30.06,51.53,30.48z"></path></g></svg>