<svg xmlns="http://www.w3.org/2000/svg" xmlns:xlink="http://www.w3.org/1999/xlink" id="Layer_1" x="0px" y="0px" viewBox="0 0 64 64" style="enable-background:new 0 0 64 64;" xml:space="preserve"><style type="text/css">	.st0{fill:#1F8BED;}	.st1{opacity:0.31;fill:#1F8BED;}</style><g>	<path class="st0" d="M61.32,55.5c-0.39-0.03-0.79-0.02-1.18-0.02h-3.05V29.51c0-1.01-0.27-1.28-1.29-1.28h-7.42   c-1.27,0-1.46,0.2-1.46,1.46v25.73h-3.09V38.66c0-1.08-0.24-1.33-1.31-1.33h-7.48c-1.24,0-1.44,0.22-1.44,1.44v16.66h-3.08V37.24   c0-1.01-0.26-1.26-1.25-1.26h-7.65c-1.03,0-1.28,0.25-1.28,1.29v18.18h-3.07V42.58c0-0.98-0.29-1.27-1.26-1.27   c-2.55-0.01-5.1-0.01-7.65,0c-1.07,0-1.33,0.25-1.33,1.3v12.86c-1.33,0-2.59,0.02-3.85-0.01c-0.54-0.01-0.99,0.12-1.33,0.55v0.7   c0.3,0.49,0.76,0.6,1.31,0.6c19.22-0.01,38.43-0.01,57.66-0.01c0.17,0,0.35,0.01,0.52-0.01c0.52-0.08,0.85-0.48,0.81-1   C62.12,55.78,61.8,55.54,61.32,55.5z M15.35,55.44H8.87V43.2h6.48V55.44z M28.67,55.46H22.2V37.83h6.47V55.46z M41.9,55.45h-6.45   V39.2h6.45V55.45z M55.24,55.45h-6.47V30.11h6.47V55.45z"></path>	<rect x="22.2" y="37.83" class="st1" width="6.47" height="17.63"></rect>	<rect x="48.77" y="30.11" class="st1" width="6.47" height="25.34"></rect>	<path class="st0" d="M52.15,6.68c-4.66-0.08-8.36,3.53-8.42,8.22c-0.08,4.56,3.59,8.29,8.19,8.35c4.48,0.04,8.28-3.64,8.36-8.1   C60.35,10.49,56.75,6.74,52.15,6.68z M52.02,21.4c-3.61,0.02-6.52-2.87-6.54-6.47c0-3.53,2.9-6.41,6.47-6.43   c3.58-0.01,6.48,2.87,6.5,6.46C58.48,18.49,55.6,21.37,52.02,21.4z"></path>	<path class="st1" d="M51.95,8.5c-3.57,0.02-6.47,2.89-6.47,6.43c0.01,3.6,2.93,6.49,6.54,6.47c3.59-0.02,6.46-2.9,6.44-6.44   C58.43,11.37,55.53,8.49,51.95,8.5z M53.18,18.98c-0.35,0.15-0.47,0.35-0.42,0.7c0.02,0.18,0,0.38,0,0.61H51.5   c-0.02-0.02-0.05-0.05-0.07-0.08c-0.09-0.95-0.09-0.95-1.02-1.18c-0.36-0.09-0.7-0.18-1.09-0.29c0-0.11-0.01-0.22,0-0.34   c0.04-0.37,0.09-0.74,0.13-1.03c0.8,0.13,1.57,0.33,2.35,0.36c0.73,0.04,1.21-0.55,1.03-1.15c-0.08-0.26-0.3-0.51-0.53-0.65   c-0.41-0.26-0.88-0.42-1.32-0.63c-0.94-0.43-1.51-1.17-1.5-2.2c0.01-1.01,0.44-1.84,1.43-2.31c0.14-0.07,0.25-0.29,0.29-0.48   c0.05-0.2,0.01-0.42,0.01-0.7h1.37v1c0.46,0.12,0.87,0.23,1.33,0.34c-0.05,0.47-0.11,0.9-0.16,1.42c-0.41-0.1-0.78-0.21-1.16-0.27   c-0.91-0.15-1.48,0.23-1.39,1c0.03,0.28,0.27,0.61,0.51,0.77c0.46,0.29,1,0.46,1.48,0.7c0.89,0.44,1.44,1.15,1.43,2.18   C54.61,17.78,54.13,18.56,53.18,18.98z"></path>	<path class="st0" d="M48.15,25.06c-0.07,0.11-0.18,0.42-0.41,0.6c-3.14,2.51-6.29,5-9.45,7.5c-0.43,0.34-0.86,0.26-1.32,0.07   c-3.67-1.53-7.35-3.04-11.01-4.58c-0.45-0.19-0.76-0.15-1.16,0.13c-3.82,2.75-7.65,5.48-11.48,8.21c-0.14,0.1-0.29,0.21-0.44,0.29   c-0.4,0.21-0.77,0.13-1.06-0.21c-0.3-0.36-0.31-0.76-0.03-1.13c0.13-0.17,0.32-0.29,0.49-0.41c4.04-2.88,8.08-5.76,12.11-8.66   c0.52-0.38,0.97-0.44,1.57-0.19c3.63,1.53,7.27,3.02,10.89,4.56c0.46,0.2,0.76,0.14,1.15-0.17c2.79-2.25,5.61-4.48,8.42-6.71   c0.22-0.17,0.5-0.33,0.77-0.37C47.74,23.91,48.14,24.31,48.15,25.06z"></path>	<path class="st0" d="M54.63,16.75c-0.02,1.03-0.5,1.81-1.45,2.23c-0.35,0.15-0.47,0.35-0.42,0.7c0.02,0.18,0,0.38,0,0.61H51.5   c-0.02-0.02-0.05-0.05-0.07-0.08c-0.09-0.95-0.09-0.95-1.02-1.18c-0.36-0.09-0.7-0.18-1.09-0.29c0-0.11-0.01-0.22,0-0.34   c0.04-0.37,0.09-0.74,0.13-1.03c0.8,0.13,1.57,0.33,2.35,0.36c0.73,0.04,1.21-0.55,1.03-1.15c-0.08-0.26-0.3-0.51-0.53-0.65   c-0.41-0.26-0.88-0.42-1.32-0.63c-0.94-0.43-1.51-1.17-1.5-2.2c0.01-1.01,0.44-1.84,1.43-2.31c0.14-0.07,0.25-0.29,0.29-0.48   c0.05-0.2,0.01-0.42,0.01-0.7h1.37v1c0.46,0.12,0.87,0.23,1.33,0.34c-0.05,0.47-0.11,0.9-0.16,1.42c-0.41-0.1-0.78-0.21-1.16-0.27   c-0.91-0.15-1.48,0.23-1.39,1c0.03,0.28,0.27,0.61,0.51,0.77c0.46,0.29,1,0.46,1.48,0.7C54.09,15.01,54.64,15.72,54.63,16.75z"></path></g></svg>