<svg xmlns="http://www.w3.org/2000/svg" xmlns:xlink="http://www.w3.org/1999/xlink" id="Layer_1" x="0px" y="0px" viewBox="0 0 64 64" style="enable-background:new 0 0 64 64;" xml:space="preserve"><style type="text/css">	.st0{fill:#1F8BED;}	.st1{opacity:0.31;fill:#1F8BED;}</style><g>	<path class="st0" d="M61.87,21.21c0.01-0.14,0.06-0.29,0.1-0.45v-3.28c-0.19-1.08-0.35-2.18-0.58-3.26   c-0.35-1.64-0.96-3.17-1.83-4.59c-0.16-0.28-0.19-0.49-0.04-0.81c0.82-1.66,0.47-3.54-0.87-4.75c-1.34-1.22-3.26-1.35-4.88-0.37   c-0.17,0.11-0.48,0.13-0.66,0.05c-3.6-1.65-7.37-1.98-11.26-1.53c-3.29,0.39-6.43,1.31-9.49,2.58c-0.24,0.11-0.61,0.07-0.87-0.04   c-3.89-1.58-7.9-2.63-12.13-2.67c-4.14-0.04-8.02,0.86-11.33,3.48C7.49,6,7.03,6.16,6.32,6.08C4.76,5.93,3.49,6.6,2.67,7.94   c-0.87,1.41-0.84,2.87,0.06,4.24c0.28,0.42,0.29,0.73,0.16,1.18c-0.99,3.34-0.98,6.72-0.42,10.13c0.45,2.76,1.25,5.42,2.35,8   c0.16,0.37,0.14,0.67-0.01,1.05c-1.66,4.02-2.73,8.2-2.7,12.6c0.04,3.85,0.92,7.49,3.29,10.63c2.5,3.34,5.94,5.13,9.98,5.84   c0.9,0.14,1.81,0.23,2.71,0.35h1.64c1.01-0.11,2.01-0.2,3.02-0.33c3.05-0.39,5.97-1.23,8.82-2.41c0.24-0.11,0.6-0.1,0.86,0.01   c3.36,1.43,6.84,2.34,10.49,2.63c0.16,0.01,0.3,0.06,0.45,0.1h3.4c0.99-0.18,2-0.3,2.96-0.57c1.12-0.31,2.22-0.73,3.3-1.14   c0.33-0.12,0.54-0.12,0.84,0.07c1.51,0.96,3.44,0.81,4.77-0.37c1.34-1.18,1.71-3.1,0.9-4.73c-0.16-0.31-0.14-0.54,0.04-0.84   c1.34-2.26,2.05-4.73,2.29-7.35c0.01-0.17,0.07-0.34,0.11-0.51v-3.28c-0.18-1.23-0.34-2.46-0.55-3.69   c-0.45-2.46-1.24-4.81-2.17-7.12c-0.1-0.25-0.1-0.61,0-0.87C60.59,28.24,61.58,24.81,61.87,21.21z M55.93,5.06   c1.12-0.01,2.02,0.86,2.04,1.95c0.02,1.1-0.88,2.01-1.99,2.02c-1.08,0.01-1.99-0.88-1.99-2C53.99,5.94,54.83,5.07,55.93,5.06z    M6.07,8.03c1.11,0.01,1.99,0.92,1.98,2.02c-0.01,1.12-0.89,1.98-2.02,1.96C4.94,12,4.07,11.13,4.06,10.03   C4.06,8.95,4.98,8.02,6.07,8.03z M4.86,13.86C6.84,14.31,8.49,13.8,9.53,12c0.92-1.61,0.65-3.18-0.58-4.75   c0.87-0.53,1.7-1.12,2.59-1.57c2.84-1.43,5.9-1.81,9.03-1.61c2.95,0.18,5.8,0.87,8.57,1.9c0.08,0.02,0.17,0.07,0.35,0.14   c-10.15,5.42-17.91,13.15-23.3,23.32C4.18,24.79,3.33,18.07,4.86,13.86z M21.92,59.81c-2.87,0.34-5.73,0.24-8.49-0.71   c-5.27-1.81-8.23-5.61-9.12-11.04C3.54,43.43,4.47,39,6.07,34.66c0-0.02,0.05-0.05,0.12-0.11c5.36,10.14,13.1,17.88,23.33,23.34   C26.99,58.86,24.49,59.51,21.92,59.81z M31.55,56.64C20.76,51.28,12.69,43.2,7.39,32.37c-0.11-0.23-0.1-0.61,0.01-0.84   c5.32-10.77,13.37-18.81,24.11-24.17c0.16-0.08,0.31-0.14,0.47-0.2c0.17,0.07,0.31,0.12,0.45,0.19   c10.8,5.35,18.87,13.43,24.23,24.21c0.12,0.25,0.11,0.66-0.01,0.92c-5.36,10.75-13.4,18.84-24.2,24.16   C32.21,56.75,31.81,56.76,31.55,56.64z M55.98,58.94c-1.13,0-2-0.87-1.99-2c0-1.1,0.92-2,2.01-1.99c1.1,0.02,1.99,0.95,1.96,2.05   C57.95,58.09,57.06,58.94,55.98,58.94z M57.88,53.4c-3.44-1.58-6.82,1.45-5.64,5.07c-6,2.55-11.86,1.55-17.84-0.57   c10.3-5.42,18.08-13.21,23.53-23.48C60.16,40.84,61.22,47.13,57.88,53.4z M57.96,29.47C52.48,19.31,44.7,11.51,34.42,6.1   c5.96-2.12,11.81-3.11,17.84-0.57c-0.54,1.78-0.26,3.3,1.08,4.5c1.32,1.16,2.83,1.28,4.47,0.55c0.72,1.13,1.22,2.37,1.57,3.67   c0.94,3.53,0.76,7.07-0.05,10.59C58.98,26.4,58.47,27.93,57.96,29.47z"></path>	<path class="st1" d="M57.96,57c-0.01,1.08-0.9,1.94-1.99,1.94c-1.13,0-2-0.87-1.99-2c0-1.1,0.92-2,2.01-1.99   C57.1,54.98,57.99,55.91,57.96,57z"></path>	<path class="st1" d="M57.96,7.01c0.02,1.1-0.88,2.01-1.99,2.02c-1.08,0.01-1.99-0.88-1.99-2c0-1.1,0.84-1.96,1.94-1.98   C57.05,5.05,57.95,5.91,57.96,7.01z"></path>	<path class="st1" d="M8.04,10.06c-0.01,1.12-0.89,1.98-2.02,1.96C4.94,12,4.07,11.13,4.06,10.03c0-1.08,0.93-2.01,2.01-2   C7.18,8.05,8.06,8.95,8.04,10.06z"></path>	<path class="st0" d="M47.62,25H35.96c0.3-2.16-0.64-4.01-1.22-5.99h3.05c0.73,0,1.2-0.39,1.2-0.99c0.01-0.59-0.46-1-1.18-1   c-1.11-0.01-2.23,0.01-3.34-0.02c-0.26,0-0.6-0.12-0.79-0.31c-0.98-0.88-2.37-0.88-3.35,0.01c-0.18,0.17-0.48,0.3-0.75,0.3   c-1.11,0.04-2.22,0.01-3.32,0.02c-0.77,0-1.25,0.4-1.24,1.01c0.01,0.59,0.47,0.98,1.22,0.98h3.03C28.7,21,27.76,22.85,28.06,25   H16.34c-1.49,0-2.29,0.79-2.3,2.25c-0.02,2.35,1.05,3.76,3.3,4.41c3.42,0.98,6.84,1.96,10.26,2.96c0.28,0.07,0.54,0.12,0.55,0.53   c0.1,2.07,0.22,4.13,0.35,6.19c0.02,0.42-0.1,0.6-0.51,0.73c-1.57,0.48-3.11,1.01-4.66,1.52c-1.11,0.37-1.49,1.13-1.16,2.23   c0.14,0.49,0.3,0.98,0.47,1.45c0.48,1.43,1.57,2.12,3.05,1.99c1.05-0.1,2.1-0.16,3.16-0.24c0.48,1.91,1.46,2.84,3.01,2.95   c1.54,0.1,2.51-0.76,3.34-2.95c1.06,0.08,2.12,0.14,3.19,0.24c1.39,0.12,2.48-0.57,2.95-1.87c0.17-0.46,0.31-0.93,0.46-1.39   c0.42-1.29,0.07-2-1.22-2.43c-1.67-0.57-3.35-1.12-5.02-1.67c0-0.34-0.01-0.65,0-0.95c0.1-1.85,0.23-3.7,0.3-5.55   c0.01-0.47,0.16-0.67,0.61-0.79c3.47-0.99,6.92-1.98,10.38-2.99c2.08-0.61,3.13-2.06,3.13-4.24C49.99,25.77,49.22,25,47.62,25z    M27.98,32.6c-0.12-0.02-0.26-0.02-0.41-0.07c-3.3-0.95-6.61-1.9-9.91-2.87c-1.24-0.36-1.78-1.29-1.54-2.65h11.86V32.6z    M26.52,47.19c-1.88,0.1-1.69,0.46-2.32-1.61v-0.14c1.46-0.49,2.91-0.96,4.43-1.47c0.05,1.02,0.11,1.99,0.17,3.03   C28.01,47.07,27.26,47.15,26.52,47.19z M33.83,36.08c-0.22,3.96-0.43,7.94-0.65,11.9c-0.01,0.3-0.02,0.59-0.06,0.88   c-0.08,0.7-0.52,1.12-1.12,1.11c-0.59-0.01-1.02-0.42-1.08-1.1c-0.08-0.79-0.11-1.59-0.16-2.38c-0.4-7.31-0.94-14.62-0.72-21.96   c0.02-0.9,0.22-1.81,0.45-2.69c0.3-1.12,0.7-2.22,1.1-3.32c0.06-0.18,0.28-0.31,0.42-0.47c0.16,0.14,0.39,0.28,0.45,0.46   c0.47,1.34,0.92,2.69,1.34,4.05c0.11,0.35,0.2,0.72,0.2,1.08C34,27.79,34,31.94,34,36.08H33.83z M39.87,45.43   c-0.16,0.51-0.26,0.98-0.48,1.4c-0.1,0.2-0.41,0.43-0.61,0.43c-1.16-0.05-2.31-0.16-3.54-0.25c0.05-1.05,0.11-2,0.16-3.05   C36.91,44.45,38.37,44.94,39.87,45.43z M46.61,29.58c-3.43,1.04-6.88,2.01-10.32,3.01c-0.07,0.01-0.14,0.01-0.25,0.01v-5.56h11.87   C48.16,28.24,47.69,29.25,46.61,29.58z"></path>	<path class="st1" d="M34,36.08h-0.17c-0.22,3.96-0.43,7.94-0.65,11.9c-0.01,0.3-0.02,0.59-0.06,0.88c-0.08,0.7-0.52,1.12-1.12,1.11   c-0.59-0.01-1.02-0.42-1.08-1.1c-0.08-0.79-0.11-1.59-0.16-2.38c-0.4-7.31-0.94-14.62-0.72-21.96c0.02-0.9,0.22-1.81,0.45-2.69   c0.3-1.12,0.7-2.22,1.1-3.32c0.06-0.18,0.28-0.31,0.42-0.47c0.16,0.14,0.39,0.28,0.45,0.46c0.47,1.34,0.92,2.69,1.34,4.05   c0.11,0.35,0.2,0.72,0.2,1.08C34,27.79,34,31.94,34,36.08z"></path></g></svg>