<svg xmlns="http://www.w3.org/2000/svg" xmlns:xlink="http://www.w3.org/1999/xlink" id="Layer_1" x="0px" y="0px" viewBox="0 0 64 64" style="enable-background:new 0 0 64 64;" xml:space="preserve"><style type="text/css">	.st0{fill:#1F8BED;}	.st1{opacity:0.31;fill:#1F8BED;}</style><g>	<path class="st0" d="M29.97,52.11c0-3.1,0.01-6.17,0-9.22c-0.01-3.64-1.59-6.4-4.73-8.25c-2.85-1.68-5.71-3.35-8.56-5.04   c-0.21-0.12-0.42-0.36-0.5-0.59c-1.46-4.17-2.92-8.36-4.35-12.54c-0.69-2.01-2.61-3.23-4.63-2.9c-1.93,0.33-3.3,2.02-3.34,4.11   c0,0.21-0.1,0.47-0.25,0.57c-1.6,1.25-2.07,2.83-1.54,4.77c1.41,5.22,2.82,10.46,4.19,15.7c0.33,1.25,0.94,2.27,1.92,3.12   c2.14,1.85,4.23,3.76,6.35,5.63c0.67,0.6,1.16,1.3,1.22,2.21c0.04,0.81,0.01,1.64,0.01,2.45c-0.87,0.33-1.01,0.51-1.01,1.41V61   c0,0.95,0.35,1.3,1.3,1.3h13.61c0.95,0,1.29-0.35,1.3-1.3v-7.47C30.98,52.64,30.84,52.44,29.97,52.11z M7.5,15.58   c1.01-0.18,2.04,0.46,2.41,1.52c0.68,1.98,1.38,3.98,2.06,5.96c0.67,1.95,1.34,3.89,2.04,5.91c-0.47,0.13-0.89,0.25-1.34,0.39   c-0.74-2.25-1.46-4.5-2.19-6.73c-0.15-0.49-0.34-0.95-0.47-1.44c-0.53-2.14-1.83-3.4-4.05-3.63C5.94,16.58,6.6,15.74,7.5,15.58z    M15.82,45.89c-2.14-1.85-4.23-3.76-6.35-5.64c-0.61-0.53-0.99-1.17-1.19-1.95c-1.41-5.28-2.84-10.54-4.25-15.81   c-0.11-0.43-0.15-0.92-0.08-1.37c0.16-0.88,0.95-1.48,1.8-1.51c0.98-0.02,1.8,0.57,2.12,1.57c0.87,2.67,1.72,5.33,2.59,8   c0.05,0.17,0.1,0.37,0.17,0.54c0.27,0.67,0.31,1.29,0.02,2.04c-0.67,1.68,0,3.63,1.56,4.6c1.95,1.2,3.96,2.33,5.95,3.47   c0.56,0.33,1.14,0.15,1.43-0.36c0.28-0.51,0.13-1.06-0.44-1.4c-1.85-1.09-3.73-2.16-5.58-3.24c-1-0.57-1.35-1.53-1-2.53   c0.46-1.22,1.82-1.67,3.04-0.96c2.31,1.33,4.6,2.69,6.88,4.03c0.69,0.4,1.4,0.78,2.07,1.22c2.18,1.41,3.33,3.44,3.36,6.03   c0.04,3.01,0.01,6.04,0.01,9.05v0.48H17.82c0-0.62-0.02-1.21,0-1.82C17.87,48.53,17.19,47.07,15.82,45.89z M28.91,60.22H16.81   v-5.97h12.11V60.22z"></path>	<rect x="16.81" y="54.24" class="st1" width="12.11" height="5.97"></rect>	<path class="st0" d="M60.41,18.28c-0.16-0.12-0.28-0.4-0.29-0.62c-0.04-2.09-1.41-3.78-3.34-4.1c-2.01-0.33-3.9,0.86-4.59,2.85   c-1.45,4.18-2.9,8.36-4.37,12.53c-0.1,0.26-0.33,0.54-0.56,0.68c-2.7,1.62-5.4,3.23-8.13,4.77c-3.49,1.97-5.19,4.91-5.13,8.92   c0.05,2.93,0.01,5.85,0.01,8.78c-0.89,0.36-1.01,0.54-1.01,1.47v7.4c0,0.99,0.34,1.32,1.33,1.32h13.54c1,0,1.33-0.34,1.33-1.33   c0.01-2.46,0-4.93,0-7.4c0-0.92-0.12-1.09-1.01-1.47c0-0.57,0.02-1.16-0.01-1.76c-0.05-1.2,0.4-2.15,1.31-2.94   c1.66-1.43,3.3-2.9,4.93-4.36c2.9-2.59,2.72-2.24,3.72-5.99c1.26-4.72,2.53-9.44,3.78-14.16C62.45,21.01,61.94,19.48,60.41,18.28z    M50.21,28.34c1.3-3.76,2.6-7.52,3.9-11.27c0.37-1.05,1.34-1.66,2.35-1.48c0.9,0.15,1.55,0.94,1.59,1.97   c-2.12,0.22-3.39,1.37-4,3.36c-0.87,2.81-1.8,5.6-2.72,8.43c-0.44-0.12-0.86-0.24-1.33-0.38C50.08,28.75,50.14,28.54,50.21,28.34z    M47.15,60.23H35.07v-6.01h12.08V60.23z M59.99,22.35c-1.43,5.35-2.85,10.71-4.34,16.04c-0.18,0.67-0.64,1.35-1.15,1.83   c-2.08,1.94-4.23,3.82-6.37,5.69c-1.33,1.16-1.99,2.58-1.95,4.34c0.01,0.61,0,1.22,0,1.89H36.05v-0.57c0-2.92-0.01-5.83,0-8.74   c0.02-2.84,1.25-4.99,3.69-6.43c2.89-1.7,5.79-3.39,8.68-5.08c0.76-0.44,1.53-0.46,2.27,0.04c0.69,0.49,0.93,1.18,0.82,1.99   c-0.1,0.74-0.57,1.19-1.18,1.54c-1.78,1.02-3.56,2.04-5.31,3.08c-0.27,0.16-0.63,0.43-0.66,0.69c-0.05,0.34,0.08,0.8,0.29,1.06   c0.31,0.38,0.79,0.33,1.21,0.08c1.95-1.14,3.93-2.21,5.84-3.41c0.61-0.39,1.12-1.04,1.46-1.68c0.6-1.07,0.5-2.23,0.05-3.37   c-0.11-0.3-0.14-0.7-0.05-1c0.96-3.04,1.95-6.06,2.93-9.09c0.39-1.2,1.51-1.89,2.58-1.58C59.79,19.99,60.33,21.07,59.99,22.35z"></path>	<rect x="35.07" y="54.22" class="st1" width="12.08" height="6.01"></rect>	<path class="st0" d="M36.9,1.98c-1.88,0.44-3.49,1.34-4.9,2.7c-0.24-0.22-0.41-0.37-0.59-0.52c-2.59-2.15-5.55-2.93-8.81-2.17   c-3.83,0.9-6.4,3.28-7.48,7.06c-1.08,3.75-0.21,7.14,2.53,9.93c4.43,4.51,8.94,8.96,13.42,13.44c0.69,0.69,1.16,0.69,1.88-0.03   c4.45-4.44,8.91-8.89,13.34-13.34c1.8-1.8,2.79-3.98,2.97-6.54C49.76,5.79,43.44,0.41,36.9,1.98z M45.05,17.38   c-4.25,4.35-8.58,8.61-12.88,12.91c-0.04,0.04-0.1,0.07-0.28,0.21c-0.2-0.24-0.35-0.47-0.54-0.66c-4.04-4.04-8.09-8.08-12.12-12.13   c-3.85-3.87-3.18-9.98,1.4-12.79c3.08-1.88,7.08-1.46,9.72,1.01c0.31,0.29,0.6,0.61,0.91,0.89c0.47,0.42,1,0.42,1.46,0   c0.31-0.29,0.6-0.61,0.91-0.89c3.2-2.98,8.18-2.88,11.26,0.21C47.98,9.21,48.1,14.26,45.05,17.38z"></path>	<path class="st1" d="M44.9,6.13c-3.08-3.09-8.06-3.19-11.26-0.21c-0.31,0.28-0.6,0.6-0.91,0.89c-0.47,0.42-1,0.42-1.46,0   c-0.31-0.28-0.6-0.6-0.91-0.89c-2.64-2.47-6.64-2.88-9.72-1.01c-4.57,2.81-5.25,8.92-1.4,12.79c4.03,4.05,8.08,8.09,12.12,12.13   c0.2,0.2,0.35,0.42,0.54,0.66c0.18-0.14,0.24-0.16,0.28-0.21c4.29-4.3,8.63-8.56,12.88-12.91C48.1,14.26,47.98,9.21,44.9,6.13z    M39.09,15.43c-0.01,0.67,0,1.34-0.01,2.03c0,0.93-0.35,1.28-1.3,1.28h-2.74v2.72c-0.01,1-0.35,1.33-1.33,1.33   c-1.18,0-2.36,0.01-3.54,0c-0.82-0.01-1.19-0.38-1.2-1.2c-0.01-0.92,0-1.84,0-2.85c-1,0-1.9,0.01-2.81,0   c-0.88-0.01-1.24-0.36-1.25-1.21c-0.01-1.22-0.01-2.45,0-3.67c0.01-0.82,0.38-1.18,1.21-1.18c0.92-0.01,1.84-0.01,2.84-0.01V9.9   c0-0.95,0.35-1.29,1.29-1.29c1.18-0.01,2.36-0.01,3.54,0c0.88,0,1.24,0.36,1.24,1.22c0.01,0.91,0.01,1.81,0.01,2.82   c0.44,0,0.88,0.01,1.31,0C39.21,12.62,39.13,12.54,39.09,15.43z"></path>	<path class="st0" d="M36.35,12.65c-0.43,0.01-0.87,0-1.31,0c0-1.01,0-1.91-0.01-2.82c0-0.87-0.36-1.22-1.24-1.22   c-1.18-0.01-2.36-0.01-3.54,0c-0.94,0-1.29,0.34-1.29,1.29v2.75c-1,0-1.92,0-2.84,0.01c-0.83,0-1.2,0.36-1.21,1.18   c-0.01,1.22-0.01,2.45,0,3.67c0.01,0.86,0.37,1.2,1.25,1.21c0.91,0.01,1.81,0,2.81,0c0,1.01-0.01,1.93,0,2.85   c0.01,0.82,0.38,1.19,1.2,1.2c1.18,0.01,2.36,0,3.54,0c0.99,0,1.32-0.34,1.33-1.33v-2.72h2.74c0.95,0,1.3-0.35,1.3-1.28   c0.01-0.68,0-1.35,0.01-2.03C39.13,12.54,39.21,12.62,36.35,12.65z M37.02,16.71h-2.45c-1.3,0-1.56,0.26-1.56,1.54   c0,0.78-0.01,1.56-0.01,2.34c0,0.03-0.03,0.07-0.05,0.14h-1.96V18.3c0-1.34-0.25-1.59-1.57-1.59h-2.44v-2.03h2.44   c1.3,0,1.57-0.26,1.57-1.53c0-0.78,0-1.56,0.01-2.34c0-0.04,0.02-0.08,0.05-0.14h1.96v2.61c0,1.08,0.31,1.4,1.38,1.4h2.63V16.71z"></path></g></svg>