<svg xmlns="http://www.w3.org/2000/svg" xmlns:xlink="http://www.w3.org/1999/xlink" id="Layer_1" x="0px" y="0px" viewBox="0 0 64 64" style="enable-background:new 0 0 64 64;" xml:space="preserve"><style type="text/css">	.st0{fill:#1F8BED;}	.st1{opacity:0.31;fill:#1F8BED;}</style><g>	<path class="st0" d="M49.47,51.81c1.28-0.07,2.28-0.7,2.77-1.87c0.6-1.43,1.05-2.9,1.55-4.36c0.17-0.5,0.02-0.99-0.41-1.22   c-0.45-0.25-0.46-0.57-0.46-0.99c0-6.68,0.01-13.36-0.02-20.04c0-0.63-0.1-1.4-0.48-1.85c-0.53-0.65-0.58-1.28-0.57-2.02   c0.02-0.68,0.01-1.35,0.01-2.03c-0.01-0.36,0-0.74-0.03-1.1c-0.06-0.5-0.37-0.78-0.86-0.77c-0.48,0.01-0.79,0.29-0.82,0.8   c-0.03,0.46-0.02,0.93-0.02,1.39v2.41c-0.54-0.14-1.01-0.28-1.47-0.36c-0.55-0.08-0.74-0.32-0.72-0.91   c0.03-2.28,0.02-4.55,0.01-6.83c-0.01-1.19-0.68-1.87-1.81-1.87c-3.87-0.01-7.73-0.02-11.59,0.02c-0.43,0-0.96,0.22-1.27,0.52   c-0.29,0.28-0.45,0.8-0.46,1.23c-0.07,1.21-0.02,2.42-0.02,3.63h-1.6V12.2c0-1.37-0.61-1.97-1.98-1.97   c-3.69-0.01-7.37-0.01-11.06,0c-1.54,0-2.12,0.59-2.12,2.14c0,2.25,0,4.52-0.01,6.77c0,0.19-0.08,0.5-0.19,0.53   c-0.63,0.2-1.28,0.34-1.96,0.51c0-3.43-0.01-6.79,0.01-10.15c0-1.01,0.53-1.76,1.35-2.31c0.6-0.41,1.22-0.8,1.81-1.23   c0.63-0.46,1.34-0.66,2.12-0.65c2.3,0.01,4.6,0,6.9,0c0.18,0,0.36,0.02,0.59,0.03c0,0.38-0.01,0.71,0,1.04   c0.03,0.92,0.54,1.44,1.46,1.45c2.6,0.01,5.21,0.01,7.81-0.01c0.88,0,1.38-0.53,1.42-1.42c0.02-0.34,0.01-0.69,0.01-1.1h5.49   c3.74,0.01,2.73-0.25,5.85,1.83c0.08,0.06,0.16,0.11,0.24,0.17c0.69,0.53,1.13,1.21,1.17,2.09c0.03,0.74,0.02,1.47,0.05,2.21   c0.02,0.66,0.33,1,0.87,1c0.51-0.01,0.83-0.34,0.85-0.97c0.02-0.75,0.01-1.51-0.02-2.25c-0.07-1.51-0.76-2.68-1.99-3.54   c-0.6-0.42-1.21-0.82-1.81-1.25c-0.99-0.72-2.08-1.04-3.31-1.03c-2.24,0.02-4.47,0.01-6.71,0.01H37.4   c-0.24-1.51-0.54-1.77-2.03-1.77h-6.71c-1.54,0-1.81,0.23-2.08,1.77h-0.61c-1.65,0-3.33,0.1-4.98-0.03   c-2.43-0.18-4.5,0.5-6.45,1.97c-1.61,1.21-2.45,2.62-2.42,4.63c0.05,3.2,0.01,6.41,0,9.61c0,0.24-0.05,0.54-0.19,0.68   c-0.66,0.62-0.85,1.39-0.85,2.25v13.15c-0.01,2.41,0,4.82-0.01,7.24c0,0.19-0.09,0.46-0.23,0.57c-0.69,0.52-0.84,0.89-0.55,1.7   c0.38,1.13,0.78,2.25,1.18,3.39c0.65,1.82,1.72,2.58,3.65,2.59h1.7c-0.32,0.65-0.57,1.19-0.86,1.7c-0.1,0.17-0.36,0.33-0.55,0.34   c-0.63,0.05-1.28,0-1.91,0.03c-0.54,0.02-0.89,0.41-0.88,0.88c0.02,0.49,0.37,0.82,0.93,0.84c0.43,0.01,0.87,0,1.38,0   c-0.33,0.65-0.58,1.21-0.88,1.74c-0.07,0.11-0.31,0.2-0.46,0.2c-0.6,0.02-1.2,0-1.8,0.01c-0.63,0.01-1.01,0.36-1,0.88   c0,0.5,0.37,0.83,0.97,0.85c0.41,0.01,0.83,0,1.26,0c-0.36,1.27-0.22,1.66,0.83,2.32h3.59c0.78-0.32,1.08-1.01,1.29-1.74   c0.12-0.48,0.39-0.59,0.86-0.59c8.3,0.02,16.6,0.02,24.9,0c0.46,0,0.72,0.11,0.86,0.59c0.2,0.74,0.51,1.43,1.29,1.74h3.59   c0.95-0.51,1.28-1.26,0.8-2.32h0.65c0.2,0,0.42,0.01,0.63,0c0.6-0.02,0.96-0.35,0.97-0.85c0.01-0.52-0.36-0.87-1-0.88   c-0.6-0.01-1.2,0.01-1.8-0.01c-0.15,0-0.38-0.05-0.44-0.16c-0.32-0.55-0.59-1.14-0.91-1.79h1.31c0.61-0.02,0.97-0.33,0.99-0.84   c0.02-0.52-0.36-0.87-0.99-0.89c-0.6-0.02-1.2,0-1.8-0.01c-0.15,0-0.36-0.01-0.42-0.1c-0.34-0.61-0.65-1.23-1.02-1.97   C48.04,51.83,48.76,51.86,49.47,51.81z M28.4,4.11h7.17V6.6H28.4V4.11z M34.52,11.99h11.66v7.18c-1.12-0.28-2.2-0.57-3.27-0.84   c-2.62-0.67-5.22-1.35-7.84-2c-0.42-0.1-0.59-0.26-0.57-0.72C34.55,14.42,34.52,13.22,34.52,11.99z M17.8,11.99h11.66   c0,1.32,0.01,2.6-0.01,3.9c0,0.12-0.16,0.32-0.27,0.35c-3.75,0.97-7.48,1.94-11.23,2.89c-0.03,0.01-0.08-0.01-0.15-0.03V11.99z    M12.8,31.24V23.3c0-0.92,0.11-1.06,0.99-1.29c5.88-1.52,11.75-3.03,17.64-4.54c0.35-0.09,0.77-0.09,1.13,0   c5.87,1.49,11.72,3.01,17.57,4.52c0.96,0.25,1.06,0.38,1.06,1.35v13.85H12.77c0-0.51,0.03-1-0.01-1.47L12.8,31.24z M46.52,40.57   c-1.13-0.02-2.28-0.02-3.41-0.01c-1.52,0.02-2.5,0.99-2.54,2.49v0.96H23.41c0-0.4,0.02-0.77,0-1.13c-0.08-1.35-1.05-2.29-2.4-2.31   c-1.14-0.02-2.28-0.02-3.42-0.01c-1.52,0.02-2.49,0.99-2.51,2.5v0.95h-2.24V39h38.32v5.03H48.9c0-0.35,0.01-0.71,0-1.08   C48.87,41.58,47.9,40.59,46.52,40.57z M47.17,44.02h-4.86c0-0.37-0.02-0.74,0.01-1.09c0.03-0.4,0.27-0.63,0.68-0.63   c1.17-0.01,2.32-0.01,3.48,0c0.44,0,0.67,0.25,0.69,0.68C47.18,43.31,47.17,43.64,47.17,44.02z M21.66,44.02h-4.85   c0-0.37-0.02-0.75,0.01-1.12c0.03-0.38,0.27-0.6,0.66-0.6c1.18-0.01,2.34-0.03,3.52,0.02c0.23,0.01,0.55,0.34,0.63,0.59   C21.75,43.24,21.66,43.63,21.66,44.02z M17.03,59.44c-0.14,0.35-0.29,0.53-0.7,0.5c-0.51-0.05-1.03-0.01-1.62-0.01   c0.15-0.31,0.26-0.55,0.37-0.79c1.09-2.15,2.16-4.3,3.24-6.45c0.46-0.92,0.46-0.92,1.6-0.78c-0.05,0.17-0.09,0.33-0.15,0.49   C18.85,54.72,17.93,57.08,17.03,59.44z M19.61,57.59c0.23-0.6,0.44-1.18,0.68-1.73c0.05-0.09,0.18-0.17,0.29-0.2   c0.12-0.03,0.27-0.01,0.41-0.01c7.34,0,14.66,0,22-0.01c0.49,0,0.74,0.14,0.87,0.6c0.12,0.44,0.32,0.86,0.52,1.36H19.61z    M21.05,53.89c0.25-0.66,0.46-1.27,0.75-1.85c0.07-0.12,0.39-0.18,0.59-0.18c3.51-0.01,7.02-0.01,10.54-0.01   c2.89,0,5.79,0.01,8.67-0.01c0.42,0,0.62,0.12,0.75,0.52c0.16,0.49,0.36,0.96,0.59,1.53H21.05z M48.98,59.3   c0.09,0.18,0.17,0.37,0.28,0.62c-0.67,0-1.26,0.01-1.85-0.01c-0.12-0.01-0.31-0.12-0.34-0.23c-1.02-2.57-2.03-5.15-3.06-7.79   c1.19-0.11,1.19-0.11,1.66,0.84C46.79,54.93,47.89,57.11,48.98,59.3z M15.32,50.11c-1.46,0-1.85-0.27-2.32-1.65   c-0.28-0.83-0.57-1.64-0.84-2.47c-0.01-0.03-0.01-0.07-0.02-0.18h39.79c-0.45,1.22-0.83,2.41-1.36,3.53   c-0.17,0.35-0.74,0.54-1.15,0.74c-0.22,0.09-0.5,0.03-0.75,0.03H15.32z"></path>	<path class="st1" d="M12.14,45.8c0.01,0.11,0.01,0.15,0.02,0.18c0.27,0.83,0.55,1.64,0.84,2.47c0.48,1.38,0.86,1.65,2.32,1.65   h33.35c0.25,0,0.53,0.06,0.75-0.03c0.42-0.19,0.99-0.38,1.15-0.74c0.53-1.12,0.91-2.31,1.36-3.53H12.14z M19.24,48.64   c-0.18,0.51-0.78,0.69-1.23,0.41c-0.59-0.37-0.58-1.83,0.02-2.21c0.45-0.28,1.04-0.08,1.22,0.44c0.07,0.22,0.08,0.45,0.11,0.69   C19.33,48.2,19.32,48.43,19.24,48.64z M26.07,48.5c-0.12,0.55-0.72,0.86-1.21,0.61c-0.52-0.27-0.51-0.77-0.51-1.27   c0.01-0.45,0.09-0.85,0.55-1.05c0.49-0.2,1.04,0.08,1.15,0.61c0.05,0.19,0.03,0.38,0.05,0.57C26.09,48.16,26.1,48.33,26.07,48.5z    M32.81,48.53c-0.15,0.59-0.78,0.84-1.28,0.52c-0.59-0.36-0.58-1.83,0.01-2.2c0.48-0.31,1.1-0.07,1.26,0.48   c0.06,0.2,0.06,0.42,0.08,0.61C32.86,48.16,32.85,48.35,32.81,48.53z M39.39,48.86c-0.24,0.18-0.65,0.32-0.92,0.25   c-0.58-0.14-0.61-0.67-0.59-1.18c0.01-0.17-0.05-0.38,0.05-0.51c0.19-0.26,0.43-0.61,0.69-0.65c0.27-0.05,0.67,0.17,0.86,0.4   C39.78,47.52,39.72,48.61,39.39,48.86z M46.36,48.51c-0.11,0.53-0.67,0.84-1.17,0.61c-0.62-0.28-0.55-0.86-0.54-1.4   c0.01-0.45,0.18-0.83,0.67-0.96c0.45-0.14,0.95,0.17,1.04,0.66c0.03,0.19,0.02,0.38,0.03,0.57C46.38,48.16,46.39,48.34,46.36,48.51   z"></path>	<path class="st1" d="M51.19,23.34v13.85H12.77c0-0.51,0.03-1-0.01-1.47l0.03-4.47V23.3c0-0.92,0.11-1.06,0.99-1.29   c5.88-1.52,11.75-3.03,17.64-4.54c0.35-0.09,0.77-0.09,1.13,0c5.87,1.49,11.72,3.01,17.57,4.52   C51.09,22.24,51.19,22.38,51.19,23.34z"></path>	<rect x="28.4" y="4.11" class="st1" width="7.17" height="2.49"></rect>	<path class="st0" d="M32.88,47.94c-0.02,0.22-0.03,0.41-0.07,0.59c-0.15,0.59-0.78,0.84-1.28,0.52c-0.59-0.36-0.58-1.83,0.01-2.2   c0.48-0.31,1.1-0.07,1.26,0.48C32.86,47.53,32.86,47.75,32.88,47.94z"></path>	<path class="st0" d="M39.67,47.94c-0.02,0.22-0.03,0.41-0.07,0.59c-0.15,0.59-0.78,0.84-1.28,0.52c-0.59-0.36-0.58-1.83,0.01-2.2   c0.48-0.31,1.1-0.07,1.26,0.48C39.65,47.53,39.65,47.75,39.67,47.94z"></path>	<path class="st0" d="M46.46,47.94c-0.02,0.22-0.03,0.41-0.07,0.59c-0.15,0.59-0.78,0.84-1.28,0.52c-0.59-0.36-0.58-1.83,0.01-2.2   c0.48-0.31,1.1-0.07,1.26,0.48C46.43,47.53,46.43,47.75,46.46,47.94z"></path>	<path class="st0" d="M26.1,47.97c-0.01,0.19,0,0.36-0.03,0.53c-0.12,0.55-0.72,0.86-1.21,0.61c-0.52-0.27-0.51-0.77-0.51-1.27   c0.01-0.45,0.09-0.85,0.55-1.05c0.49-0.2,1.04,0.08,1.15,0.61C26.1,47.59,26.09,47.78,26.1,47.97z"></path>	<path class="st0" d="M19.36,47.98c-0.03,0.23-0.05,0.45-0.12,0.67c-0.18,0.51-0.78,0.69-1.23,0.41c-0.59-0.37-0.58-1.83,0.02-2.21   c0.45-0.28,1.04-0.08,1.22,0.44C19.32,47.5,19.33,47.74,19.36,47.98z"></path></g></svg>